<svg width="86" height="72" viewBox="0 0 86 72" fill="none" xmlns="http://www.w3.org/2000/svg">
<g opacity="0.3">
<mask id="mask0_1_11" style="mask-type:alpha" maskUnits="userSpaceOnUse" x="0" y="0" width="8" height="8">
<path d="M3.90962 7.90983C6.06885 7.90983 7.81925 6.2753 7.81925 4.25906C7.81925 2.24282 6.06885 0.608337 3.90962 0.608337C1.7504 0.608337 0 2.24282 0 4.25906C0 6.2753 1.7504 7.90983 3.90962 7.90983Z" fill="url(#paint0_linear_1_11)"/>
</mask>
<g mask="url(#mask0_1_11)">
<path d="M3.90962 7.90983C6.06885 7.90983 7.81925 6.2753 7.81925 4.25906C7.81925 2.24282 6.06885 0.608337 3.90962 0.608337C1.7504 0.608337 0 2.24282 0 4.25906C0 6.2753 1.7504 7.90983 3.90962 7.90983Z" fill="url(#paint1_linear_1_11)"/>
</g>
<mask id="mask1_1_11" style="mask-type:alpha" maskUnits="userSpaceOnUse" x="22" y="0" width="9" height="8">
<path d="M26.5525 7.90983C28.7117 7.90983 30.4621 6.2753 30.4621 4.25906C30.4621 2.24282 28.7117 0.608337 26.5525 0.608337C24.3933 0.608337 22.6429 2.24282 22.6429 4.25906C22.6429 6.2753 24.3933 7.90983 26.5525 7.90983Z" fill="url(#paint2_linear_1_11)"/>
</mask>
<g mask="url(#mask1_1_11)">
<path d="M26.5528 7.90983C28.712 7.90983 30.4625 6.2753 30.4625 4.25906C30.4625 2.24282 28.712 0.608337 26.5528 0.608337C24.3936 0.608337 22.6432 2.24282 22.6432 4.25906C22.6432 6.2753 24.3936 7.90983 26.5528 7.90983Z" fill="url(#paint3_linear_1_11)"/>
</g>
<mask id="mask2_1_11" style="mask-type:alpha" maskUnits="userSpaceOnUse" x="45" y="0" width="9" height="8">
<path d="M49.1953 7.90983C51.3546 7.90983 53.105 6.2753 53.105 4.25906C53.105 2.24282 51.3546 0.608337 49.1953 0.608337C47.0361 0.608337 45.2857 2.24282 45.2857 4.25906C45.2857 6.2753 47.0361 7.90983 49.1953 7.90983Z" fill="url(#paint4_linear_1_11)"/>
</mask>
<g mask="url(#mask2_1_11)">
<path d="M49.196 7.90983C51.3552 7.90983 53.1056 6.2753 53.1056 4.25906C53.1056 2.24282 51.3552 0.608337 49.196 0.608337C47.0368 0.608337 45.2864 2.24282 45.2864 4.25906C45.2864 6.2753 47.0368 7.90983 49.196 7.90983Z" fill="url(#paint5_linear_1_11)"/>
</g>
<mask id="mask3_1_11" style="mask-type:alpha" maskUnits="userSpaceOnUse" x="67" y="0" width="9" height="8">
<path d="M71.8382 7.90983C73.9974 7.90983 75.7478 6.2753 75.7478 4.25906C75.7478 2.24282 73.9974 0.608337 71.8382 0.608337C69.6789 0.608337 67.9285 2.24282 67.9285 4.25906C67.9285 6.2753 69.6789 7.90983 71.8382 7.90983Z" fill="url(#paint6_linear_1_11)"/>
</mask>
<g mask="url(#mask3_1_11)">
<path d="M71.8388 7.90983C73.998 7.90983 75.7484 6.2753 75.7484 4.25906C75.7484 2.24282 73.998 0.608337 71.8388 0.608337C69.6795 0.608337 67.9291 2.24282 67.9291 4.25906C67.9291 6.2753 69.6795 7.90983 71.8388 7.90983Z" fill="url(#paint7_linear_1_11)"/>
</g>
<mask id="mask4_1_11" style="mask-type:alpha" maskUnits="userSpaceOnUse" x="0" y="18" width="8" height="9">
<path d="M3.90962 26.2395C6.06885 26.2395 7.81925 24.605 7.81925 22.5888C7.81925 20.5725 6.06885 18.938 3.90962 18.938C1.7504 18.938 0 20.5725 0 22.5888C0 24.605 1.7504 26.2395 3.90962 26.2395Z" fill="url(#paint8_linear_1_11)"/>
</mask>
<g mask="url(#mask4_1_11)">
<path d="M3.90962 26.2395C6.06885 26.2395 7.81925 24.6051 7.81925 22.5888C7.81925 20.5726 6.06885 18.9381 3.90962 18.9381C1.7504 18.9381 0 20.5726 0 22.5888C0 24.6051 1.7504 26.2395 3.90962 26.2395Z" fill="url(#paint9_linear_1_11)"/>
</g>
<mask id="mask5_1_11" style="mask-type:alpha" maskUnits="userSpaceOnUse" x="22" y="18" width="9" height="9">
<path d="M26.5525 26.2396C28.7117 26.2396 30.4621 24.6051 30.4621 22.5889C30.4621 20.5726 28.7117 18.9381 26.5525 18.9381C24.3933 18.9381 22.6429 20.5726 22.6429 22.5889C22.6429 24.6051 24.3933 26.2396 26.5525 26.2396Z" fill="url(#paint10_linear_1_11)"/>
</mask>
<g mask="url(#mask5_1_11)">
<path d="M26.5528 26.2395C28.712 26.2395 30.4625 24.605 30.4625 22.5888C30.4625 20.5726 28.712 18.9381 26.5528 18.9381C24.3936 18.9381 22.6432 20.5726 22.6432 22.5888C22.6432 24.605 24.3936 26.2395 26.5528 26.2395Z" fill="url(#paint11_linear_1_11)"/>
</g>
<mask id="mask6_1_11" style="mask-type:alpha" maskUnits="userSpaceOnUse" x="45" y="18" width="9" height="9">
<path d="M49.1953 26.2396C51.3546 26.2396 53.105 24.6051 53.105 22.5889C53.105 20.5726 51.3546 18.9381 49.1953 18.9381C47.0361 18.9381 45.2857 20.5726 45.2857 22.5889C45.2857 24.6051 47.0361 26.2396 49.1953 26.2396Z" fill="url(#paint12_linear_1_11)"/>
</mask>
<g mask="url(#mask6_1_11)">
<path d="M49.196 26.2395C51.3552 26.2395 53.1056 24.605 53.1056 22.5888C53.1056 20.5726 51.3552 18.9381 49.196 18.9381C47.0368 18.9381 45.2864 20.5726 45.2864 22.5888C45.2864 24.605 47.0368 26.2395 49.196 26.2395Z" fill="url(#paint13_linear_1_11)"/>
</g>
<mask id="mask7_1_11" style="mask-type:alpha" maskUnits="userSpaceOnUse" x="67" y="18" width="9" height="9">
<path d="M71.8382 26.2396C73.9974 26.2396 75.7478 24.6051 75.7478 22.5889C75.7478 20.5726 73.9974 18.9381 71.8382 18.9381C69.6789 18.9381 67.9285 20.5726 67.9285 22.5889C67.9285 24.6051 69.6789 26.2396 71.8382 26.2396Z" fill="url(#paint14_linear_1_11)"/>
</mask>
<g mask="url(#mask7_1_11)">
<path d="M71.8388 26.2395C73.998 26.2395 75.7484 24.605 75.7484 22.5888C75.7484 20.5726 73.998 18.9381 71.8388 18.9381C69.6795 18.9381 67.9291 20.5726 67.9291 22.5888C67.9291 24.605 69.6795 26.2395 71.8388 26.2395Z" fill="url(#paint15_linear_1_11)"/>
</g>
<mask id="mask8_1_11" style="mask-type:alpha" maskUnits="userSpaceOnUse" x="0" y="37" width="8" height="8">
<path d="M3.90962 44.5313C6.06885 44.5313 7.81925 42.8968 7.81925 40.8805C7.81925 38.8643 6.06885 37.2298 3.90962 37.2298C1.7504 37.2298 0 38.8643 0 40.8805C0 42.8968 1.7504 44.5313 3.90962 44.5313Z" fill="url(#paint16_linear_1_11)"/>
</mask>
<g mask="url(#mask8_1_11)">
<path d="M3.90962 44.5314C6.06885 44.5314 7.81925 42.8969 7.81925 40.8806C7.81925 38.8644 6.06885 37.2299 3.90962 37.2299C1.7504 37.2299 0 38.8644 0 40.8806C0 42.8969 1.7504 44.5314 3.90962 44.5314Z" fill="url(#paint17_linear_1_11)"/>
</g>
<mask id="mask9_1_11" style="mask-type:alpha" maskUnits="userSpaceOnUse" x="22" y="37" width="9" height="8">
<path d="M26.5525 44.5316C28.7117 44.5316 30.4621 42.8971 30.4621 40.8808C30.4621 38.8646 28.7117 37.2301 26.5525 37.2301C24.3933 37.2301 22.6429 38.8646 22.6429 40.8808C22.6429 42.8971 24.3933 44.5316 26.5525 44.5316Z" fill="url(#paint18_linear_1_11)"/>
</mask>
<g mask="url(#mask9_1_11)">
<path d="M26.5528 44.5314C28.712 44.5314 30.4625 42.8969 30.4625 40.8806C30.4625 38.8644 28.712 37.2299 26.5528 37.2299C24.3936 37.2299 22.6432 38.8644 22.6432 40.8806C22.6432 42.8969 24.3936 44.5314 26.5528 44.5314Z" fill="url(#paint19_linear_1_11)"/>
</g>
<mask id="mask10_1_11" style="mask-type:alpha" maskUnits="userSpaceOnUse" x="45" y="37" width="9" height="8">
<path d="M49.1953 44.5316C51.3546 44.5316 53.105 42.8971 53.105 40.8808C53.105 38.8646 51.3546 37.2301 49.1953 37.2301C47.0361 37.2301 45.2857 38.8646 45.2857 40.8808C45.2857 42.8971 47.0361 44.5316 49.1953 44.5316Z" fill="url(#paint20_linear_1_11)"/>
</mask>
<g mask="url(#mask10_1_11)">
<path d="M49.196 44.5314C51.3552 44.5314 53.1056 42.8969 53.1056 40.8806C53.1056 38.8644 51.3552 37.2299 49.196 37.2299C47.0368 37.2299 45.2864 38.8644 45.2864 40.8806C45.2864 42.8969 47.0368 44.5314 49.196 44.5314Z" fill="url(#paint21_linear_1_11)"/>
</g>
<mask id="mask11_1_11" style="mask-type:alpha" maskUnits="userSpaceOnUse" x="67" y="37" width="9" height="8">
<path d="M71.8382 44.5316C73.9974 44.5316 75.7478 42.8971 75.7478 40.8808C75.7478 38.8646 73.9974 37.2301 71.8382 37.2301C69.6789 37.2301 67.9285 38.8646 67.9285 40.8808C67.9285 42.8971 69.6789 44.5316 71.8382 44.5316Z" fill="url(#paint22_linear_1_11)"/>
</mask>
<g mask="url(#mask11_1_11)">
<path d="M71.8388 44.5314C73.998 44.5314 75.7484 42.8969 75.7484 40.8806C75.7484 38.8644 73.998 37.2299 71.8388 37.2299C69.6795 37.2299 67.9291 38.8644 67.9291 40.8806C67.9291 42.8969 69.6795 44.5314 71.8388 44.5314Z" fill="url(#paint23_linear_1_11)"/>
</g>
<mask id="mask12_1_11" style="mask-type:alpha" maskUnits="userSpaceOnUse" x="0" y="55" width="8" height="8">
<path d="M3.90962 62.8614C6.06885 62.8614 7.81925 61.2268 7.81925 59.2106C7.81925 57.1944 6.06885 55.5599 3.90962 55.5599C1.7504 55.5599 0 57.1944 0 59.2106C0 61.2268 1.7504 62.8614 3.90962 62.8614Z" fill="url(#paint24_linear_1_11)"/>
</mask>
<g mask="url(#mask12_1_11)">
<path d="M3.90962 62.8611C6.06885 62.8611 7.81925 61.2266 7.81925 59.2104C7.81925 57.1941 6.06885 55.5596 3.90962 55.5596C1.7504 55.5596 0 57.1941 0 59.2104C0 61.2266 1.7504 62.8611 3.90962 62.8611Z" fill="url(#paint25_linear_1_11)"/>
</g>
<mask id="mask13_1_11" style="mask-type:alpha" maskUnits="userSpaceOnUse" x="22" y="55" width="9" height="8">
<path d="M26.5525 62.8614C28.7117 62.8614 30.4621 61.2268 30.4621 59.2106C30.4621 57.1944 28.7117 55.5599 26.5525 55.5599C24.3933 55.5599 22.6429 57.1944 22.6429 59.2106C22.6429 61.2268 24.3933 62.8614 26.5525 62.8614Z" fill="url(#paint26_linear_1_11)"/>
</mask>
<g mask="url(#mask13_1_11)">
<path d="M26.5528 62.8611C28.712 62.8611 30.4625 61.2266 30.4625 59.2104C30.4625 57.1941 28.712 55.5596 26.5528 55.5596C24.3936 55.5596 22.6432 57.1941 22.6432 59.2104C22.6432 61.2266 24.3936 62.8611 26.5528 62.8611Z" fill="url(#paint27_linear_1_11)"/>
</g>
<mask id="mask14_1_11" style="mask-type:alpha" maskUnits="userSpaceOnUse" x="45" y="55" width="9" height="8">
<path d="M49.1953 62.8614C51.3546 62.8614 53.105 61.2268 53.105 59.2106C53.105 57.1944 51.3546 55.5599 49.1953 55.5599C47.0361 55.5599 45.2857 57.1944 45.2857 59.2106C45.2857 61.2268 47.0361 62.8614 49.1953 62.8614Z" fill="url(#paint28_linear_1_11)"/>
</mask>
<g mask="url(#mask14_1_11)">
<path d="M49.196 62.8611C51.3552 62.8611 53.1056 61.2266 53.1056 59.2104C53.1056 57.1941 51.3552 55.5596 49.196 55.5596C47.0368 55.5596 45.2864 57.1941 45.2864 59.2104C45.2864 61.2266 47.0368 62.8611 49.196 62.8611Z" fill="url(#paint29_linear_1_11)"/>
</g>
<mask id="mask15_1_11" style="mask-type:alpha" maskUnits="userSpaceOnUse" x="67" y="55" width="9" height="8">
<path d="M71.8382 62.8614C73.9974 62.8614 75.7478 61.2268 75.7478 59.2106C75.7478 57.1944 73.9974 55.5599 71.8382 55.5599C69.6789 55.5599 67.9285 57.1944 67.9285 59.2106C67.9285 61.2268 69.6789 62.8614 71.8382 62.8614Z" fill="url(#paint30_linear_1_11)"/>
</mask>
<g mask="url(#mask15_1_11)">
<path d="M71.8388 62.8611C73.998 62.8611 75.7484 61.2266 75.7484 59.2104C75.7484 57.1941 73.998 55.5596 71.8388 55.5596C69.6795 55.5596 67.9291 57.1941 67.9291 59.2104C67.9291 61.2266 69.6795 62.8611 71.8388 62.8611Z" fill="url(#paint31_linear_1_11)"/>
</g>
</g>
<defs>
<linearGradient id="paint0_linear_1_11" x1="38.076" y1="85.2447" x2="-9.54477" y2="-44.211" gradientUnits="userSpaceOnUse">
<stop stop-color="#FFA434"/>
<stop offset="1" stop-color="#FFA434"/>
</linearGradient>
<linearGradient id="paint1_linear_1_11" x1="38.076" y1="85.2447" x2="-9.54477" y2="-44.211" gradientUnits="userSpaceOnUse">
<stop stop-color="#FFA434"/>
<stop offset="1" stop-color="#FFA434"/>
</linearGradient>
<linearGradient id="paint2_linear_1_11" x1="60.7189" y1="85.2447" x2="13.0982" y2="-44.211" gradientUnits="userSpaceOnUse">
<stop stop-color="#FFA434"/>
<stop offset="1" stop-color="#FFA434"/>
</linearGradient>
<linearGradient id="paint3_linear_1_11" x1="60.7192" y1="85.2447" x2="13.0985" y2="-44.211" gradientUnits="userSpaceOnUse">
<stop stop-color="#FFA434"/>
<stop offset="1" stop-color="#FFA434"/>
</linearGradient>
<linearGradient id="paint4_linear_1_11" x1="83.3617" y1="85.2447" x2="35.741" y2="-44.211" gradientUnits="userSpaceOnUse">
<stop stop-color="#FFA434"/>
<stop offset="1" stop-color="#FFA434"/>
</linearGradient>
<linearGradient id="paint5_linear_1_11" x1="83.3624" y1="85.2447" x2="35.7417" y2="-44.211" gradientUnits="userSpaceOnUse">
<stop stop-color="#FFA434"/>
<stop offset="1" stop-color="#FFA434"/>
</linearGradient>
<linearGradient id="paint6_linear_1_11" x1="106.005" y1="85.2447" x2="58.3838" y2="-44.211" gradientUnits="userSpaceOnUse">
<stop stop-color="#FFA434"/>
<stop offset="1" stop-color="#FFA434"/>
</linearGradient>
<linearGradient id="paint7_linear_1_11" x1="106.005" y1="85.2447" x2="58.3845" y2="-44.211" gradientUnits="userSpaceOnUse">
<stop stop-color="#FFA434"/>
<stop offset="1" stop-color="#FFA434"/>
</linearGradient>
<linearGradient id="paint8_linear_1_11" x1="38.076" y1="103.574" x2="-9.54394" y2="-25.8812" gradientUnits="userSpaceOnUse">
<stop stop-color="#FFA434"/>
<stop offset="1" stop-color="#FFA434"/>
</linearGradient>
<linearGradient id="paint9_linear_1_11" x1="38.076" y1="103.574" x2="-9.54394" y2="-25.8811" gradientUnits="userSpaceOnUse">
<stop stop-color="#FFA434"/>
<stop offset="1" stop-color="#FFA434"/>
</linearGradient>
<linearGradient id="paint10_linear_1_11" x1="60.7189" y1="103.574" x2="13.099" y2="-25.8811" gradientUnits="userSpaceOnUse">
<stop stop-color="#FFA434"/>
<stop offset="1" stop-color="#FFA434"/>
</linearGradient>
<linearGradient id="paint11_linear_1_11" x1="60.7192" y1="103.574" x2="13.0993" y2="-25.8812" gradientUnits="userSpaceOnUse">
<stop stop-color="#FFA434"/>
<stop offset="1" stop-color="#FFA434"/>
</linearGradient>
<linearGradient id="paint12_linear_1_11" x1="83.3617" y1="103.574" x2="35.7419" y2="-25.8811" gradientUnits="userSpaceOnUse">
<stop stop-color="#FFA434"/>
<stop offset="1" stop-color="#FFA434"/>
</linearGradient>
<linearGradient id="paint13_linear_1_11" x1="83.3624" y1="103.574" x2="35.7425" y2="-25.8812" gradientUnits="userSpaceOnUse">
<stop stop-color="#FFA434"/>
<stop offset="1" stop-color="#FFA434"/>
</linearGradient>
<linearGradient id="paint14_linear_1_11" x1="106.005" y1="103.574" x2="58.3847" y2="-25.8811" gradientUnits="userSpaceOnUse">
<stop stop-color="#FFA434"/>
<stop offset="1" stop-color="#FFA434"/>
</linearGradient>
<linearGradient id="paint15_linear_1_11" x1="106.005" y1="103.574" x2="58.3853" y2="-25.8812" gradientUnits="userSpaceOnUse">
<stop stop-color="#FFA434"/>
<stop offset="1" stop-color="#FFA434"/>
</linearGradient>
<linearGradient id="paint16_linear_1_11" x1="38.076" y1="121.866" x2="-9.54477" y2="-7.58954" gradientUnits="userSpaceOnUse">
<stop stop-color="#FFA434"/>
<stop offset="1" stop-color="#FFA434"/>
</linearGradient>
<linearGradient id="paint17_linear_1_11" x1="38.076" y1="121.866" x2="-9.54477" y2="-7.58945" gradientUnits="userSpaceOnUse">
<stop stop-color="#FFA434"/>
<stop offset="1" stop-color="#FFA434"/>
</linearGradient>
<linearGradient id="paint18_linear_1_11" x1="60.7189" y1="121.866" x2="13.0982" y2="-7.5893" gradientUnits="userSpaceOnUse">
<stop stop-color="#FFA434"/>
<stop offset="1" stop-color="#FFA434"/>
</linearGradient>
<linearGradient id="paint19_linear_1_11" x1="60.7192" y1="121.866" x2="13.0985" y2="-7.58949" gradientUnits="userSpaceOnUse">
<stop stop-color="#FFA434"/>
<stop offset="1" stop-color="#FFA434"/>
</linearGradient>
<linearGradient id="paint20_linear_1_11" x1="83.3617" y1="121.866" x2="35.741" y2="-7.5893" gradientUnits="userSpaceOnUse">
<stop stop-color="#FFA434"/>
<stop offset="1" stop-color="#FFA434"/>
</linearGradient>
<linearGradient id="paint21_linear_1_11" x1="83.3624" y1="121.866" x2="35.7417" y2="-7.58949" gradientUnits="userSpaceOnUse">
<stop stop-color="#FFA434"/>
<stop offset="1" stop-color="#FFA434"/>
</linearGradient>
<linearGradient id="paint22_linear_1_11" x1="106.005" y1="121.866" x2="58.3838" y2="-7.5893" gradientUnits="userSpaceOnUse">
<stop stop-color="#FFA434"/>
<stop offset="1" stop-color="#FFA434"/>
</linearGradient>
<linearGradient id="paint23_linear_1_11" x1="106.005" y1="121.866" x2="58.3845" y2="-7.58949" gradientUnits="userSpaceOnUse">
<stop stop-color="#FFA434"/>
<stop offset="1" stop-color="#FFA434"/>
</linearGradient>
<linearGradient id="paint24_linear_1_11" x1="38.076" y1="140.196" x2="-9.54477" y2="10.7405" gradientUnits="userSpaceOnUse">
<stop stop-color="#FFA434"/>
<stop offset="1" stop-color="#FFA434"/>
</linearGradient>
<linearGradient id="paint25_linear_1_11" x1="38.076" y1="140.196" x2="-9.54477" y2="10.7403" gradientUnits="userSpaceOnUse">
<stop stop-color="#FFA434"/>
<stop offset="1" stop-color="#FFA434"/>
</linearGradient>
<linearGradient id="paint26_linear_1_11" x1="60.7189" y1="140.196" x2="13.0982" y2="10.7405" gradientUnits="userSpaceOnUse">
<stop stop-color="#FFA434"/>
<stop offset="1" stop-color="#FFA434"/>
</linearGradient>
<linearGradient id="paint27_linear_1_11" x1="60.7192" y1="140.196" x2="13.0985" y2="10.7403" gradientUnits="userSpaceOnUse">
<stop stop-color="#FFA434"/>
<stop offset="1" stop-color="#FFA434"/>
</linearGradient>
<linearGradient id="paint28_linear_1_11" x1="83.3617" y1="140.196" x2="35.741" y2="10.7405" gradientUnits="userSpaceOnUse">
<stop stop-color="#FFA434"/>
<stop offset="1" stop-color="#FFA434"/>
</linearGradient>
<linearGradient id="paint29_linear_1_11" x1="83.3624" y1="140.196" x2="35.7417" y2="10.7403" gradientUnits="userSpaceOnUse">
<stop stop-color="#FFA434"/>
<stop offset="1" stop-color="#FFA434"/>
</linearGradient>
<linearGradient id="paint30_linear_1_11" x1="106.005" y1="140.196" x2="58.3838" y2="10.7405" gradientUnits="userSpaceOnUse">
<stop stop-color="#FFA434"/>
<stop offset="1" stop-color="#FFA434"/>
</linearGradient>
<linearGradient id="paint31_linear_1_11" x1="106.005" y1="140.196" x2="58.3845" y2="10.7403" gradientUnits="userSpaceOnUse">
<stop stop-color="#FFA434"/>
<stop offset="1" stop-color="#FFA434"/>
</linearGradient>
</defs>
</svg>
